<svg xmlns="http://www.w3.org/2000/svg" width="236" height="38" fill="none"><g clip-path="url(#a)"><path d="M235.789 31.406c0-1.047-.631-1.57-1.788-1.57l-.947-.105c-.632-.105-.842-.314-.842-.628 0-.419.316-.733 1.052-.733.526 0 1.052.105 1.473.419l.737-.733c-.526-.419-1.368-.628-2.21-.628-1.262 0-2.209.628-2.209 1.78 0 1.047.631 1.465 1.788 1.57l.947.105c.631 0 .842.314.842.628 0 .523-.526.837-1.263.837-.631 0-1.262-.105-1.683-.628l-.842.733c.737.628 1.578.837 2.525.837 1.368-.104 2.42-.733 2.42-1.884Zm-11.468-3.56c-.421-.418-.842-.523-1.473-.523-.632 0-1.263.314-1.579.733v-.628h-1.157v5.653h1.157v-3.455c0-.837.527-1.256 1.158-1.256.421 0 .631.105.947.419l.947-.942Zm-13.152 1.99h-2.736c0-.314 0-.524.105-.733a1.296 1.296 0 0 1 1.158-.733c.526 0 .947.314 1.157.733.21.21.316.314.316.733Zm1.157.733v-.524c0-1.57-.947-2.722-2.525-2.722-1.578 0-2.525 1.047-2.525 2.931 0 2.199 1.157 2.932 2.735 2.932 1.052 0 1.579-.314 2.21-.943l-.737-.732c-.421.418-.736.628-1.473.628-.947 0-1.473-.628-1.473-1.57h3.788Zm-12.731 2.512v-3.664c0-.628-.211-1.152-.631-1.57-.316-.314-.947-.524-1.473-.524-.842 0-1.368.314-1.894.838-.421-.524-.947-.838-1.684-.838-.631 0-1.157.21-1.578.628v-.523h-1.157v5.653h1.157v-3.455c0-.837.526-1.256 1.263-1.256.631 0 1.157.419 1.157 1.256v3.455h1.157v-3.56c0-.837.632-1.256 1.263-1.256.631 0 1.157.42 1.157 1.257v3.454h1.263v.105Zm-15.677-5.653h-1.263l-1.368 3.978-1.473-3.978h-1.262l2.104 5.444-.316.942c-.21.418-.315.628-.841.628h-.316v1.047h.526c.421 0 .947-.105 1.263-.42.21-.209.315-.418.421-.732l2.525-6.909Zm-11.679 5.653v-.942h-.526c-.526 0-.632-.21-.632-.628v-6.386h-1.157v6.386c0 .837.526 1.57 1.683 1.57h.632Zm-11.364-2.827c0 .629 0 1.257-.421 1.57-.21.21-.526.315-.841.315-.316 0-.632-.105-.842-.314-.316-.314-.421-.942-.421-1.57 0-.629 0-1.257.421-1.57.21-.21.526-.315.842-.315.315 0 .631.105.841.314.421.419.421.942.421 1.57Zm1.263 0c0-.942-.105-1.675-.737-2.198-.42-.419-.947-.628-1.788-.628-.842 0-1.368.314-1.789.628-.526.523-.736 1.256-.736 2.198 0 .943.105 1.675.736 2.199.421.419.947.628 1.789.628.841 0 1.368-.314 1.788-.628.526-.524.737-1.256.737-2.199Zm-13.783 0c0 1.047-.106 1.885-1.263 1.885-1.052 0-1.263-.838-1.263-1.885 0-1.046.211-1.884 1.263-1.884 1.157 0 1.263.838 1.263 1.884Zm1.262 0c0-.837-.105-1.884-.631-2.407-.316-.314-.842-.524-1.473-.524-.631 0-1.158.21-1.578.628v-.628h-1.158v8.061h1.158v-2.931c.42.523.947.628 1.578.628.631 0 1.157-.21 1.473-.524.526-.418.631-1.465.631-2.303Zm-17.992-1.884v-.837h-1.157v-.838c0-.419.21-.628.631-.628h.526v-.942h-.736c-1.158 0-1.684.733-1.684 1.57v.838h-.736v.837h.736v4.71h1.158v-4.71h1.262Zm-11.679 1.884c0 .629 0 1.257-.421 1.57-.21.21-.526.315-.841.315-.316 0-.632-.105-.842-.314-.316-.314-.421-.942-.421-1.57 0-.629 0-1.257.421-1.57.21-.21.526-.315.842-.315.315 0 .631.105.841.314.421.419.421.942.421 1.57Zm1.263 0c0-.942-.105-1.675-.737-2.198-.421-.419-.947-.628-1.788-.628-.842 0-1.368.314-1.789.628-.526.523-.737 1.256-.737 2.198 0 .943.106 1.675.737 2.199.421.419.947.628 1.789.628.841 0 1.367-.314 1.788-.628.632-.524.737-1.256.737-2.199Zm-19.676 0c0 1.047-.105 1.885-1.262 1.885-1.052 0-1.263-.838-1.263-1.885 0-1.046.21-1.884 1.263-1.884 1.157 0 1.262.838 1.262 1.884Zm1.158 2.827v-7.956h-1.158v2.931c-.42-.523-.947-.628-1.578-.628-.631 0-1.157.21-1.473.523-.631.524-.631 1.57-.631 2.408 0 .838.105 1.884.631 2.408.316.314.842.523 1.473.523.631 0 1.158-.21 1.578-.628v.628h1.158v-.21Zm-12.1 0v-.942h-.526c-.526 0-.632-.21-.632-.628v-6.386h-1.157v6.386c0 .837.526 1.57 1.684 1.57h.63Zm-9.47-5.234c-.42-.419-.841-.524-1.473-.524-.63 0-1.262.314-1.578.733v-.628h-1.157v5.653h1.157v-3.455c0-.837.526-1.256 1.158-1.256.42 0 .63.105.947.419l.946-.942ZM67.97 30.254c0 .629 0 1.257-.42 1.57-.21.21-.527.315-.842.315-.316 0-.631-.105-.842-.314-.316-.314-.42-.942-.42-1.57 0-.629 0-1.257.42-1.57.21-.21.526-.315.842-.315.316 0 .631.105.842.314.315.419.42.942.42 1.57Zm1.158 0c0-.942-.105-1.675-.737-2.198-.42-.419-.947-.628-1.788-.628-.842 0-1.368.314-1.79.628-.525.523-.63 1.256-.63 2.198 0 .943.105 1.675.736 2.199.421.419.947.628 1.789.628s1.368-.314 1.789-.628c.526-.524.63-1.256.63-2.199Zm-11.784-2.826H56.08l-1.263 3.978-1.367-3.978h-.947l-1.368 3.978-1.158-3.978h-1.262l1.894 5.653h1.052l1.368-3.978 1.367 3.978h1.053l1.894-5.653Z" fill="#9D9D9C"/><path d="M35.142 2.094H7.26V31.51h27.882V2.094Z" fill="#FFED00"/><path fill-rule="evenodd" clip-rule="evenodd" d="M9.26 29.416h23.884V4.083H9.26v25.333Zm-2 4.187c-.525 0-1.051-.21-1.367-.628a2.062 2.062 0 0 1-.631-1.465V2.094c0-.524.21-1.047.526-1.466C6.208.21 6.735 0 7.26 0h27.882c.526 0 1.052.21 1.368.628.42.419.631.942.631 1.466V31.51c0 .523-.21 1.046-.526 1.465-.316.419-.842.628-1.368.628H7.261Z" fill="#005CA9"/><path fill-rule="evenodd" clip-rule="evenodd" d="M8.943 29.729H33.46V3.872H8.943v25.857Zm26.199 1.78v-1.78 1.78ZM7.26 33.287c-.421 0-.842-.21-1.158-.524a1.927 1.927 0 0 1-.526-1.256V2.092c0-.419.21-.942.526-1.256C6.418.522 6.84.313 7.26.313h27.882c.42 0 .842.209 1.157.523.316.314.526.733.526 1.256v29.416c0 .419-.21.942-.526 1.256-.315.314-.736.524-1.157.524H7.26Z" fill="#005CA9"/><path d="M39.35 10.363H0v4.502h39.35v-4.502Z" fill="#005CA9"/><path d="M27.25 12.559h-4.523v25.333h4.524V12.559Z" fill="#005CA9"/><path fill-rule="evenodd" clip-rule="evenodd" d="M223.48 9.21 234.633.313h-6.418l-8.628 7.328V.313h-4.419V19.26h4.419v-7.746l9.364 7.746h7.05L223.48 9.21ZM206.749.523h-9.785c-1.157 0-2.63.105-3.472 1.047-.842.838-.947 2.513-.947 3.664v9.736c0 1.151.105 2.722.947 3.664.842.837 2.315 1.046 3.472 1.046h9.785c1.157 0 2.631-.104 3.472-1.046.842-.838.947-2.513.947-3.664v-2.408l-4.419-1.047v3.978h-9.68V4.397h9.68v3.559l4.419-.838V5.13c0-1.151-.105-2.721-.947-3.663-.841-.838-2.315-.943-3.472-.943Zm-30.933 10.781h7.575V7.536h-7.575v-3.56h12.941V.313h-17.361V19.26h17.466v-3.978h-13.046v-3.978Zm-27.777-7.013h7.47v15.18h4.42V4.29h7.47V.418h-19.36v3.873Zm-16.308 5.966v1.047c0 .419 0 .838.106 1.256-.106-.104-.211-.209-.211-.314l-1.052-1.046L118.895.313h-3.051v19.052h3.998V6.908c.21.314.526.523.736.837l12.1 11.41h3.052V.313h-3.999v9.945Zm-32.722 1.047h7.47V7.536h-7.47v-3.56h12.836V.313H94.59V19.26h17.466v-3.978H99.009v-3.978ZM86.593.313h-14.31v19.052h4.314v-7.119h9.89c1.053 0 2.21-.209 3.052-.942.736-.732.947-1.884.947-2.93V4.185c0-1.047-.21-2.199-.947-2.931-.737-.733-1.894-.942-2.946-.942Zm-.316 6.909c0 .314 0 .732-.316.942-.21.21-.736.21-1.052.21h-8.207V4.08h8.207c.316 0 .947 0 1.157.21.211.209.211.732.211.942v1.989ZM63.97.313H51.976c-1.158 0-2.63.104-3.472 1.046-.842.942-.947 2.513-.947 3.664v9.631c0 1.152.105 2.722.947 3.664.841.837 2.314 1.047 3.472 1.047H63.97c1.158 0 2.63-.105 3.472-1.047.842-.838.948-2.512.948-3.664V4.92c0-1.152-.106-2.722-.948-3.664-.841-.838-2.42-.942-3.472-.942Zm-.105 14.97h-11.89V4.185h11.89v11.096Z" fill="#005CA9"/></g><defs><clipPath id="a"><path fill="#fff" d="M0 0h236v38H0z"/></clipPath></defs></svg>