<?xml version="1.0" encoding="UTF-8"?> <svg xmlns="http://www.w3.org/2000/svg" width="236" height="38" viewBox="0 0 236 38" fill="none"><g clip-path="url(#clip0)"><path d="M235.789 31.406C235.789 30.3592 235.158 29.8357 234.001 29.8357L233.054 29.7311C232.422 29.6264 232.212 29.417 232.212 29.103C232.212 28.6842 232.528 28.3702 233.264 28.3702C233.79 28.3702 234.316 28.4749 234.737 28.7889L235.474 28.0561C234.948 27.6374 234.106 27.428 233.264 27.428C232.002 27.428 231.055 28.0561 231.055 29.2076C231.055 30.2545 231.686 30.6732 232.843 30.7779L233.79 30.8826C234.421 30.8826 234.632 31.1966 234.632 31.5107C234.632 32.0341 234.106 32.3481 233.369 32.3481C232.738 32.3481 232.107 32.2435 231.686 31.72L230.844 32.4528C231.581 33.0809 232.422 33.2903 233.369 33.2903C234.737 33.1856 235.789 32.5575 235.789 31.406ZM224.321 27.8468C223.9 27.428 223.479 27.3233 222.848 27.3233C222.216 27.3233 221.585 27.6374 221.269 28.0561V27.428H220.112V33.0809H221.269V29.6264C221.269 28.7889 221.796 28.3702 222.427 28.3702C222.848 28.3702 223.058 28.4749 223.374 28.7889L224.321 27.8468ZM211.169 29.8357H208.433C208.433 29.5217 208.433 29.3123 208.538 29.103C208.749 28.6842 209.17 28.3702 209.696 28.3702C210.222 28.3702 210.643 28.6842 210.853 29.103C211.063 29.3123 211.169 29.417 211.169 29.8357ZM212.326 30.5685V30.0451C212.326 28.4749 211.379 27.3233 209.801 27.3233C208.223 27.3233 207.276 28.3702 207.276 30.2545C207.276 32.4528 208.433 33.1856 210.011 33.1856C211.063 33.1856 211.59 32.8716 212.221 32.2435L211.484 31.5107C211.063 31.9294 210.748 32.1388 210.011 32.1388C209.064 32.1388 208.538 31.5107 208.538 30.5685H212.326ZM199.595 33.0809V29.417C199.595 28.7889 199.384 28.2655 198.964 27.8468C198.648 27.5327 198.017 27.3233 197.491 27.3233C196.649 27.3233 196.123 27.6374 195.597 28.1608C195.176 27.6374 194.65 27.3233 193.913 27.3233C193.282 27.3233 192.756 27.5327 192.335 27.9514V27.428H191.178V33.0809H192.335V29.6264C192.335 28.7889 192.861 28.3702 193.598 28.3702C194.229 28.3702 194.755 28.7889 194.755 29.6264V33.0809H195.912V29.5217C195.912 28.6842 196.544 28.2655 197.175 28.2655C197.806 28.2655 198.332 28.6842 198.332 29.5217V32.9762H199.595V33.0809ZM183.918 27.428H182.655L181.287 31.406L179.814 27.428H178.552L180.656 32.8716L180.34 33.8137C180.13 34.2324 180.025 34.4418 179.499 34.4418H179.183V35.4886H179.709C180.13 35.4886 180.656 35.384 180.972 35.0699C181.182 34.8605 181.287 34.6512 181.393 34.3371L183.918 27.428ZM172.239 33.0809V32.1388H171.713C171.187 32.1388 171.081 31.9294 171.081 31.5107V25.125H169.924V31.5107C169.924 32.3481 170.45 33.0809 171.607 33.0809H172.239ZM160.875 30.2545C160.875 30.8826 160.875 31.5107 160.454 31.8247C160.244 32.0341 159.928 32.1388 159.613 32.1388C159.297 32.1388 158.981 32.0341 158.771 31.8247C158.455 31.5107 158.35 30.8826 158.35 30.2545C158.35 29.6264 158.35 28.9983 158.771 28.6842C158.981 28.4749 159.297 28.3702 159.613 28.3702C159.928 28.3702 160.244 28.4749 160.454 28.6842C160.875 29.103 160.875 29.6264 160.875 30.2545ZM162.138 30.2545C162.138 29.3123 162.033 28.5795 161.401 28.0561C160.981 27.6374 160.454 27.428 159.613 27.428C158.771 27.428 158.245 27.7421 157.824 28.0561C157.298 28.5795 157.088 29.3123 157.088 30.2545C157.088 31.1966 157.193 31.9294 157.824 32.4528C158.245 32.8716 158.771 33.0809 159.613 33.0809C160.454 33.0809 160.981 32.7669 161.401 32.4528C161.927 31.9294 162.138 31.1966 162.138 30.2545ZM148.355 30.2545C148.355 31.3013 148.249 32.1388 147.092 32.1388C146.04 32.1388 145.829 31.3013 145.829 30.2545C145.829 29.2076 146.04 28.3702 147.092 28.3702C148.249 28.3702 148.355 29.2076 148.355 30.2545ZM149.617 30.2545C149.617 29.417 149.512 28.3702 148.986 27.8468C148.67 27.5327 148.144 27.3233 147.513 27.3233C146.882 27.3233 146.355 27.5327 145.935 27.9514V27.3233H144.777V35.384H145.935V32.4528C146.355 32.9762 146.882 33.0809 147.513 33.0809C148.144 33.0809 148.67 32.8716 148.986 32.5575C149.512 32.1388 149.617 31.0919 149.617 30.2545ZM131.625 28.3702V27.5327H130.468V26.6952C130.468 26.2765 130.678 26.0671 131.099 26.0671H131.625V25.125H130.889C129.731 25.125 129.205 25.8578 129.205 26.6952V27.5327H128.469V28.3702H129.205V33.0809H130.363V28.3702H131.625ZM119.946 30.2545C119.946 30.8826 119.946 31.5107 119.525 31.8247C119.315 32.0341 118.999 32.1388 118.684 32.1388C118.368 32.1388 118.052 32.0341 117.842 31.8247C117.526 31.5107 117.421 30.8826 117.421 30.2545C117.421 29.6264 117.421 28.9983 117.842 28.6842C118.052 28.4749 118.368 28.3702 118.684 28.3702C118.999 28.3702 119.315 28.4749 119.525 28.6842C119.946 29.103 119.946 29.6264 119.946 30.2545ZM121.209 30.2545C121.209 29.3123 121.104 28.5795 120.472 28.0561C120.051 27.6374 119.525 27.428 118.684 27.428C117.842 27.428 117.316 27.7421 116.895 28.0561C116.369 28.5795 116.158 29.3123 116.158 30.2545C116.158 31.1966 116.264 31.9294 116.895 32.4528C117.316 32.8716 117.842 33.0809 118.684 33.0809C119.525 33.0809 120.051 32.7669 120.472 32.4528C121.104 31.9294 121.209 31.1966 121.209 30.2545ZM101.533 30.2545C101.533 31.3013 101.428 32.1388 100.271 32.1388C99.2186 32.1388 99.0082 31.3013 99.0082 30.2545C99.0082 29.2076 99.2186 28.3702 100.271 28.3702C101.428 28.3702 101.533 29.2076 101.533 30.2545ZM102.691 33.0809V25.125H101.533V28.0561C101.113 27.5327 100.586 27.428 99.9551 27.428C99.3239 27.428 98.7978 27.6374 98.4821 27.9514C97.8508 28.4749 97.8508 29.5217 97.8508 30.3592C97.8508 31.1966 97.956 32.2435 98.4821 32.7669C98.7978 33.0809 99.3239 33.2903 99.9551 33.2903C100.586 33.2903 101.113 33.0809 101.533 32.6622V33.2903H102.691V33.0809ZM90.5909 33.0809V32.1388H90.0648C89.5387 32.1388 89.4335 31.9294 89.4335 31.5107V25.125H88.2761V31.5107C88.2761 32.3481 88.8022 33.0809 89.9596 33.0809H90.5909ZM81.1214 27.8468C80.7006 27.428 80.2797 27.3233 79.6484 27.3233C79.0171 27.3233 78.3858 27.6374 78.0702 28.0561V27.428H76.9128V33.0809H78.0702V29.6264C78.0702 28.7889 78.5963 28.3702 79.2276 28.3702C79.6484 28.3702 79.8588 28.4749 80.1745 28.7889L81.1214 27.8468ZM67.9694 30.2545C67.9694 30.8826 67.9694 31.5107 67.5485 31.8247C67.3381 32.0341 67.0225 32.1388 66.7068 32.1388C66.3912 32.1388 66.0755 32.0341 65.8651 31.8247C65.5494 31.5107 65.4442 30.8826 65.4442 30.2545C65.4442 29.6264 65.4442 28.9983 65.8651 28.6842C66.0755 28.4749 66.3912 28.3702 66.7068 28.3702C67.0225 28.3702 67.3381 28.4749 67.5485 28.6842C67.8642 29.103 67.9694 29.6264 67.9694 30.2545ZM69.1268 30.2545C69.1268 29.3123 69.0216 28.5795 68.3903 28.0561C67.9694 27.6374 67.4433 27.428 66.6016 27.428C65.7599 27.428 65.2338 27.7421 64.8129 28.0561C64.2868 28.5795 64.1816 29.3123 64.1816 30.2545C64.1816 31.1966 64.2868 31.9294 64.9181 32.4528C65.339 32.8716 65.8651 33.0809 66.7068 33.0809C67.5486 33.0809 68.0746 32.7669 68.4955 32.4528C69.0216 31.9294 69.1268 31.1966 69.1268 30.2545ZM57.3426 27.428H56.08L54.8174 31.406L53.4496 27.428H52.5026L51.1348 31.406L49.9774 27.428H48.7148L50.6087 33.0809H51.6609L53.0287 29.103L54.3965 33.0809H55.4487L57.3426 27.428Z" fill="#9D9D9C"></path><path d="M35.1421 2.09375H7.25977V31.5097H35.1421V2.09375Z" fill="#FFED00"></path><path fill-rule="evenodd" clip-rule="evenodd" d="M9.25994 29.416H33.144V4.08264H9.25994V29.416ZM7.26083 33.6033C6.73475 33.6033 6.20866 33.3939 5.89302 32.9752C5.47215 32.5565 5.26172 32.0331 5.26172 31.5096V2.09366C5.26172 1.57025 5.47215 1.04683 5.7878 0.628099C6.20866 0.209366 6.73475 0 7.26083 0H35.1431C35.6692 0 36.1953 0.209366 36.5109 0.628099C36.9318 1.04683 37.1422 1.57025 37.1422 2.09366V31.5096C37.1422 32.0331 36.9318 32.5565 36.6161 32.9752C36.3005 33.3939 35.7744 33.6033 35.2483 33.6033H7.26083Z" fill="#005CA9"></path><path fill-rule="evenodd" clip-rule="evenodd" d="M8.94309 29.7285H33.4585V3.87173H8.94309V29.7285ZM35.1419 31.5081V29.7285V31.5081ZM7.25963 33.2877C6.83877 33.2877 6.4179 33.0783 6.10225 32.7643C5.7866 32.4502 5.57617 31.9268 5.57617 31.5081V2.09211C5.57617 1.67338 5.7866 1.14997 6.10225 0.835916C6.4179 0.521866 6.83877 0.3125 7.25963 0.3125H35.1419C35.5628 0.3125 35.9837 0.521866 36.2993 0.835916C36.615 1.14997 36.8254 1.5687 36.8254 2.09211V31.5081C36.8254 31.9268 36.615 32.4502 36.2993 32.7643C35.9837 33.0783 35.5628 33.2877 35.1419 33.2877H7.25963Z" fill="#005CA9"></path><path d="M39.3509 10.3633H0V14.8647H39.3509V10.3633Z" fill="#005CA9"></path><path d="M27.2509 12.5586H22.7266V37.8919H27.2509V12.5586Z" fill="#005CA9"></path><path fill-rule="evenodd" clip-rule="evenodd" d="M223.48 9.21057L234.633 0.3125H228.215L219.587 7.64032V0.3125H215.168V19.2602H219.587V11.5136L228.951 19.2602H236.001L223.48 9.21057Z" fill="#005CA9"></path><path fill-rule="evenodd" clip-rule="evenodd" d="M206.749 0.523438H196.964C195.807 0.523438 194.334 0.628121 193.492 1.57027C192.65 2.40774 192.545 4.08267 192.545 5.23418V14.9697C192.545 16.1212 192.65 17.6915 193.492 18.6336C194.334 19.4711 195.807 19.6805 196.964 19.6805H206.749C207.906 19.6805 209.38 19.5758 210.221 18.6336C211.063 17.7962 211.168 16.1212 211.168 14.9697V12.562L206.749 11.5152V15.4931H197.069V4.39672H206.749V7.95594L211.168 7.11848V5.1295C211.168 3.97798 211.063 2.40773 210.221 1.46559C209.38 0.628121 207.906 0.523438 206.749 0.523438Z" fill="#005CA9"></path><path fill-rule="evenodd" clip-rule="evenodd" d="M175.816 11.3042H183.391V7.53564H175.816V3.97641H188.757V0.3125H171.396V19.2602H188.862V15.2822H175.816V11.3042Z" fill="#005CA9"></path><path fill-rule="evenodd" clip-rule="evenodd" d="M148.039 4.29125H155.509V19.4703H159.929V4.29125H167.399V0.417969H148.039V4.29125Z" fill="#005CA9"></path><path fill-rule="evenodd" clip-rule="evenodd" d="M131.731 10.2574C131.731 10.5715 131.731 10.9902 131.731 11.3042C131.731 11.723 131.731 12.1417 131.837 12.5604C131.731 12.4558 131.626 12.3511 131.626 12.2464C131.311 11.9323 130.89 11.5136 130.574 11.1996L118.895 0.3125H115.844V19.3648H119.842V9.00121C119.842 8.58247 119.842 8.16374 119.842 7.64032C119.842 7.43096 119.842 7.22159 119.842 6.90754C120.052 7.22159 120.368 7.43096 120.578 7.74501L132.678 19.1555H135.73V0.3125H131.731V10.2574Z" fill="#005CA9"></path><path fill-rule="evenodd" clip-rule="evenodd" d="M99.0089 11.3042H106.479V7.53564H99.0089V3.97641H111.845V0.3125H94.5898V19.2602H112.056V15.2822H99.0089V11.3042Z" fill="#005CA9"></path><path fill-rule="evenodd" clip-rule="evenodd" d="M86.5926 0.3125H72.2832V19.3648H76.5971V12.2464H86.4874C87.5396 12.2464 88.6969 12.037 89.5387 11.3042C90.2752 10.5715 90.4856 9.41994 90.4856 8.37311V4.18578C90.4856 3.13895 90.2752 1.98743 89.5387 1.25465C88.8022 0.521866 87.6448 0.3125 86.5926 0.3125ZM86.277 7.22159C86.277 7.53564 86.277 7.95437 85.9613 8.16374C85.7509 8.37311 85.2248 8.37311 84.9092 8.37311H76.7023V4.0811H84.9092C85.2248 4.0811 85.8561 4.0811 86.0665 4.29046C86.277 4.49983 86.277 5.02324 86.277 5.23261V7.22159Z" fill="#005CA9"></path><path fill-rule="evenodd" clip-rule="evenodd" d="M63.9704 0.3125H51.9757C50.8183 0.3125 49.3453 0.417183 48.5036 1.35933C47.6619 2.30148 47.5566 3.87173 47.5566 5.02324V14.6541C47.5566 15.8056 47.6619 17.3759 48.5036 18.318C49.3453 19.1555 50.8183 19.3648 51.9757 19.3648H63.9704C65.1278 19.3648 66.6008 19.2602 67.4425 18.318C68.2842 17.4805 68.3895 15.8056 68.3895 14.6541V4.91856C68.3895 3.76705 68.2842 2.1968 67.4425 1.25465C66.6008 0.417183 65.0225 0.3125 63.9704 0.3125ZM63.8652 15.2822H51.9757V4.18578H63.8652V15.2822Z" fill="#005CA9"></path></g><defs><clipPath id="clip0"><rect width="236" height="38" fill="white"></rect></clipPath></defs></svg> 